<svg id="Icon_awesome-arrow-circle-right" data-name="Icon awesome-arrow-circle-right" xmlns="http://www.w3.org/2000/svg" width="28.46" height="28.46" viewBox="0 0 28.46 28.46">
  <path id="Icon_awesome-arrow-circle-right-2" data-name="Icon awesome-arrow-circle-right" d="M14.792.563A14.23,14.23,0,1,1,.563,14.792,14.227,14.227,0,0,1,14.792.563ZM13.134,8.8l4.332,4.154H6.989a1.374,1.374,0,0,0-1.377,1.377v.918a1.374,1.374,0,0,0,1.377,1.377H17.466l-4.332,4.154a1.379,1.379,0,0,0-.023,1.968l.631.625a1.371,1.371,0,0,0,1.945,0L23.3,15.768a1.371,1.371,0,0,0,0-1.945L15.687,6.2a1.371,1.371,0,0,0-1.945,0l-.631.625A1.385,1.385,0,0,0,13.134,8.8Z" transform="translate(-0.563 -0.563)" fill="#fff"/>
</svg>
