<svg xmlns="http://www.w3.org/2000/svg" width="35.527" height="35.527" viewBox="0 0 35.527 35.527">
  <g id="Component_4_1" data-name="Component 4 – 1" transform="translate(1 1)">
    <g id="Group_2878" data-name="Group 2878" transform="translate(-251.218 -105.635)" opacity="0.9">
      <circle id="Ellipse_733" data-name="Ellipse 733" cx="16.764" cy="16.764" r="16.764" transform="translate(251.218 105.635)" fill="none" stroke="#e8292c" stroke-miterlimit="10" stroke-width="2"/>
    </g>
    <path id="Icon_feather-phone-call" data-name="Icon feather-phone-call" d="M13.254,4.618A3.9,3.9,0,0,1,16.333,7.7M13.254,1.5a7.016,7.016,0,0,1,6.2,6.19m-.78,6.221v2.339a1.559,1.559,0,0,1-1.7,1.559,15.427,15.427,0,0,1-6.727-2.393,15.2,15.2,0,0,1-4.677-4.677A15.427,15.427,0,0,1,3.174,3.979a1.559,1.559,0,0,1,1.551-1.7H7.064A1.559,1.559,0,0,1,8.623,3.62a10.009,10.009,0,0,0,.546,2.191,1.559,1.559,0,0,1-.351,1.645l-.99.99a12.473,12.473,0,0,0,4.677,4.677l.99-.99a1.559,1.559,0,0,1,1.645-.351,10.009,10.009,0,0,0,2.191.546A1.559,1.559,0,0,1,18.671,13.91Z" transform="translate(5.536 7.343)" fill="none" stroke="#e45c5e" stroke-linecap="round" stroke-linejoin="round" stroke-width="2"/>
  </g>
</svg>
