<svg id="Component_8_1" data-name="Component 8 – 1" xmlns="http://www.w3.org/2000/svg" width="70" height="70" viewBox="0 0 70 70">
  <circle id="Ellipse_742" data-name="Ellipse 742" cx="35" cy="35" r="35" fill="#e45c5e"/>
  <g id="twitter-logo-silhouette" transform="translate(14 18)">
    <g id="Group_145" data-name="Group 145" transform="translate(0 0)">
      <g id="Group_144" data-name="Group 144">
        <path id="Path_2502" data-name="Path 2502" d="M42.646,61.539a17.471,17.471,0,0,1-5.023,1.378,8.785,8.785,0,0,0,3.845-4.837A17.637,17.637,0,0,1,35.909,60.2,8.755,8.755,0,0,0,21,68.18a24.837,24.837,0,0,1-18.03-9.14A8.758,8.758,0,0,0,5.68,70.717a8.749,8.749,0,0,1-3.963-1.1v.109a8.757,8.757,0,0,0,7.016,8.578,8.861,8.861,0,0,1-2.305.306,8.4,8.4,0,0,1-1.647-.163,8.753,8.753,0,0,0,8.17,6.076A17.552,17.552,0,0,1,2.088,88.265,18.59,18.59,0,0,1,0,88.145,24.728,24.728,0,0,0,13.41,92.081C29.5,92.081,38.3,78.752,38.3,67.192l-.029-1.133A17.47,17.47,0,0,0,42.646,61.539Z" transform="translate(-0.001 -57.441)" fill="#fff"/>
      </g>
    </g>
  </g>
</svg>
